<mxfile host="65bd71144e" pages="2">
    <diagram id="K7MMtwXwDl5NfztKmLhr" name="Page-1">
        <mxGraphModel dx="2660" dy="787" grid="0" gridSize="10" guides="1" tooltips="1" connect="0" arrows="0" fold="1" page="0" pageScale="1" pageWidth="827" pageHeight="1169" background="none" math="0" shadow="0">
            <root>
                <mxCell id="0"/>
                <mxCell id="1" parent="0"/>
                <mxCell id="17" value="ChannelSpec" style="swimlane;fontStyle=0;childLayout=stackLayout;horizontal=1;startSize=26;fillColor=none;horizontalStack=0;resizeParent=1;resizeParentMax=0;resizeLast=0;collapsible=1;marginBottom=0;rounded=0;shadow=0;comic=0;" parent="1" vertex="1">
                    <mxGeometry x="-1145" y="305" width="151" height="130" as="geometry"/>
                </mxCell>
                <mxCell id="vzT8f4KXaF0AbJHfFzT5-18" value="+ Network" style="text;strokeColor=#82b366;fillColor=#d5e8d4;align=left;verticalAlign=top;spacingLeft=4;spacingRight=4;overflow=hidden;rotatable=0;points=[[0,0.5],[1,0.5]];portConstraint=eastwest;dashed=1;rounded=0;" parent="17" vertex="1">
                    <mxGeometry y="26" width="151" height="26" as="geometry"/>
                </mxCell>
                <mxCell id="18" value="+ Members (array)" style="text;strokeColor=#82b366;fillColor=#d5e8d4;align=left;verticalAlign=top;spacingLeft=4;spacingRight=4;overflow=hidden;rotatable=0;points=[[0,0.5],[1,0.5]];portConstraint=eastwest;dashed=1;rounded=0;" vertex="1" parent="17">
                    <mxGeometry y="52" width="151" height="26" as="geometry"/>
                </mxCell>
                <mxCell id="KDWJucEkSN8olWHDvFnU-124" value="+ Peers (array)" style="text;strokeColor=#82b366;fillColor=#d5e8d4;align=left;verticalAlign=top;spacingLeft=4;spacingRight=4;overflow=hidden;rotatable=0;points=[[0,0.5],[1,0.5]];portConstraint=eastwest;dashed=1;rounded=0;" parent="17" vertex="1">
                    <mxGeometry y="78" width="151" height="26" as="geometry"/>
                </mxCell>
                <mxCell id="dRl3eRQ6_bMQMa4h4iAi-48" value="+ Description" style="text;strokeColor=#000000;fillColor=none;align=left;verticalAlign=top;spacingLeft=4;spacingRight=4;overflow=hidden;rotatable=0;points=[[0,0.5],[1,0.5]];portConstraint=eastwest;dashed=1;rounded=0;gradientColor=none;" parent="17" vertex="1">
                    <mxGeometry y="104" width="151" height="26" as="geometry"/>
                </mxCell>
                <mxCell id="KDWJucEkSN8olWHDvFnU-101" value="Channel" style="swimlane;fontStyle=0;childLayout=stackLayout;horizontal=1;startSize=26;fillColor=#f8cecc;horizontalStack=0;resizeParent=1;resizeParentMax=0;resizeLast=0;collapsible=1;marginBottom=0;rounded=0;shadow=0;comic=0;swimlaneLine=1;glass=0;swimlaneFillColor=none;strokeColor=#b85450;" parent="1" vertex="1">
                    <mxGeometry x="-1145" y="145" width="156" height="130" as="geometry">
                        <mxRectangle x="110" y="120" width="90" height="26" as="alternateBounds"/>
                    </mxGeometry>
                </mxCell>
                <mxCell id="KDWJucEkSN8olWHDvFnU-102" value="+ TypeMeta" style="text;strokeColor=#000000;fillColor=none;align=left;verticalAlign=top;spacingLeft=4;spacingRight=4;overflow=hidden;rotatable=0;points=[[0,0.5],[1,0.5]];portConstraint=eastwest;dashed=1;rounded=0;glass=0;" parent="KDWJucEkSN8olWHDvFnU-101" vertex="1">
                    <mxGeometry y="26" width="156" height="26" as="geometry"/>
                </mxCell>
                <mxCell id="KDWJucEkSN8olWHDvFnU-103" value="+ ObjectMeta" style="text;strokeColor=#000000;fillColor=none;align=left;verticalAlign=top;spacingLeft=4;spacingRight=4;overflow=hidden;rotatable=0;points=[[0,0.5],[1,0.5]];portConstraint=eastwest;dashed=1;rounded=0;glass=0;" parent="KDWJucEkSN8olWHDvFnU-101" vertex="1">
                    <mxGeometry y="52" width="156" height="26" as="geometry"/>
                </mxCell>
                <mxCell id="KDWJucEkSN8olWHDvFnU-104" value="+ ChannelSpec" style="text;strokeColor=#000000;fillColor=none;align=left;verticalAlign=top;spacingLeft=4;spacingRight=4;overflow=hidden;rotatable=0;points=[[0,0.5],[1,0.5]];portConstraint=eastwest;rounded=0;dashed=1;glass=0;" parent="KDWJucEkSN8olWHDvFnU-101" vertex="1">
                    <mxGeometry y="78" width="156" height="26" as="geometry"/>
                </mxCell>
                <mxCell id="KDWJucEkSN8olWHDvFnU-105" value="+ ChannelStatus" style="text;strokeColor=#000000;fillColor=none;align=left;verticalAlign=top;spacingLeft=4;spacingRight=4;overflow=hidden;rotatable=0;points=[[0,0.5],[1,0.5]];portConstraint=eastwest;rounded=0;dashed=1;glass=0;" parent="KDWJucEkSN8olWHDvFnU-101" vertex="1">
                    <mxGeometry y="104" width="156" height="26" as="geometry"/>
                </mxCell>
                <mxCell id="KDWJucEkSN8olWHDvFnU-136" value="ChannelStatus" style="swimlane;fontStyle=0;childLayout=stackLayout;horizontal=1;startSize=26;fillColor=none;horizontalStack=0;resizeParent=1;resizeParentMax=0;resizeLast=0;collapsible=1;marginBottom=0;rounded=0;shadow=0;comic=0;swimlaneLine=1;glass=0;swimlaneFillColor=none;" parent="1" vertex="1">
                    <mxGeometry x="-1356" y="260" width="147" height="78" as="geometry">
                        <mxRectangle x="110" y="120" width="90" height="26" as="alternateBounds"/>
                    </mxGeometry>
                </mxCell>
                <mxCell id="KDWJucEkSN8olWHDvFnU-137" value="+ CRStatus" style="text;strokeColor=#000000;fillColor=none;align=left;verticalAlign=top;spacingLeft=4;spacingRight=4;overflow=hidden;rotatable=0;points=[[0,0.5],[1,0.5]];portConstraint=eastwest;dashed=1;rounded=0;glass=0;" parent="KDWJucEkSN8olWHDvFnU-136" vertex="1">
                    <mxGeometry y="26" width="147" height="26" as="geometry"/>
                </mxCell>
                <mxCell id="dRl3eRQ6_bMQMa4h4iAi-32" value="+ PeerConditions (array)" style="text;strokeColor=#82b366;fillColor=#d5e8d4;align=left;verticalAlign=top;spacingLeft=4;spacingRight=4;overflow=hidden;rotatable=0;points=[[0,0.5],[1,0.5]];portConstraint=eastwest;dashed=1;rounded=0;glass=0;" parent="KDWJucEkSN8olWHDvFnU-136" vertex="1">
                    <mxGeometry y="52" width="147" height="26" as="geometry"/>
                </mxCell>
                <mxCell id="dRl3eRQ6_bMQMa4h4iAi-36" value="Network" style="swimlane;fontStyle=0;childLayout=stackLayout;horizontal=1;startSize=26;fillColor=#f8cecc;horizontalStack=0;resizeParent=1;resizeParentMax=0;resizeLast=0;collapsible=1;marginBottom=0;rounded=0;shadow=0;comic=0;swimlaneLine=1;glass=0;swimlaneFillColor=none;strokeColor=#b85450;" parent="1" vertex="1">
                    <mxGeometry x="-924" y="169" width="156" height="130" as="geometry">
                        <mxRectangle x="110" y="120" width="90" height="26" as="alternateBounds"/>
                    </mxGeometry>
                </mxCell>
                <mxCell id="dRl3eRQ6_bMQMa4h4iAi-37" value="+ TypeMeta" style="text;strokeColor=#000000;fillColor=none;align=left;verticalAlign=top;spacingLeft=4;spacingRight=4;overflow=hidden;rotatable=0;points=[[0,0.5],[1,0.5]];portConstraint=eastwest;dashed=1;rounded=0;glass=0;" parent="dRl3eRQ6_bMQMa4h4iAi-36" vertex="1">
                    <mxGeometry y="26" width="156" height="26" as="geometry"/>
                </mxCell>
                <mxCell id="dRl3eRQ6_bMQMa4h4iAi-38" value="+ ObjectMeta" style="text;strokeColor=#000000;fillColor=none;align=left;verticalAlign=top;spacingLeft=4;spacingRight=4;overflow=hidden;rotatable=0;points=[[0,0.5],[1,0.5]];portConstraint=eastwest;dashed=1;rounded=0;glass=0;" parent="dRl3eRQ6_bMQMa4h4iAi-36" vertex="1">
                    <mxGeometry y="52" width="156" height="26" as="geometry"/>
                </mxCell>
                <mxCell id="dRl3eRQ6_bMQMa4h4iAi-39" value="+ NetworkSpec" style="text;strokeColor=#000000;fillColor=none;align=left;verticalAlign=top;spacingLeft=4;spacingRight=4;overflow=hidden;rotatable=0;points=[[0,0.5],[1,0.5]];portConstraint=eastwest;rounded=0;dashed=1;glass=0;" parent="dRl3eRQ6_bMQMa4h4iAi-36" vertex="1">
                    <mxGeometry y="78" width="156" height="26" as="geometry"/>
                </mxCell>
                <mxCell id="dRl3eRQ6_bMQMa4h4iAi-40" value="+ NetworkStatus" style="text;strokeColor=#000000;fillColor=none;align=left;verticalAlign=top;spacingLeft=4;spacingRight=4;overflow=hidden;rotatable=0;points=[[0,0.5],[1,0.5]];portConstraint=eastwest;rounded=0;dashed=1;glass=0;" parent="dRl3eRQ6_bMQMa4h4iAi-36" vertex="1">
                    <mxGeometry y="104" width="156" height="26" as="geometry"/>
                </mxCell>
                <mxCell id="dRl3eRQ6_bMQMa4h4iAi-42" value="Organization" style="swimlane;fontStyle=0;childLayout=stackLayout;horizontal=1;startSize=26;fillColor=#f8cecc;horizontalStack=0;resizeParent=1;resizeParentMax=0;resizeLast=0;collapsible=1;marginBottom=0;rounded=0;shadow=0;comic=0;swimlaneLine=1;glass=0;swimlaneFillColor=none;strokeColor=#b85450;" parent="1" vertex="1">
                    <mxGeometry x="-924" y="347" width="156" height="130" as="geometry">
                        <mxRectangle x="110" y="120" width="90" height="26" as="alternateBounds"/>
                    </mxGeometry>
                </mxCell>
                <mxCell id="dRl3eRQ6_bMQMa4h4iAi-43" value="+ TypeMeta" style="text;strokeColor=#000000;fillColor=none;align=left;verticalAlign=top;spacingLeft=4;spacingRight=4;overflow=hidden;rotatable=0;points=[[0,0.5],[1,0.5]];portConstraint=eastwest;dashed=1;rounded=0;glass=0;" parent="dRl3eRQ6_bMQMa4h4iAi-42" vertex="1">
                    <mxGeometry y="26" width="156" height="26" as="geometry"/>
                </mxCell>
                <mxCell id="dRl3eRQ6_bMQMa4h4iAi-44" value="+ ObjectMeta" style="text;strokeColor=#000000;fillColor=none;align=left;verticalAlign=top;spacingLeft=4;spacingRight=4;overflow=hidden;rotatable=0;points=[[0,0.5],[1,0.5]];portConstraint=eastwest;dashed=1;rounded=0;glass=0;" parent="dRl3eRQ6_bMQMa4h4iAi-42" vertex="1">
                    <mxGeometry y="52" width="156" height="26" as="geometry"/>
                </mxCell>
                <mxCell id="dRl3eRQ6_bMQMa4h4iAi-45" value="+ NetworkSpec" style="text;strokeColor=#000000;fillColor=none;align=left;verticalAlign=top;spacingLeft=4;spacingRight=4;overflow=hidden;rotatable=0;points=[[0,0.5],[1,0.5]];portConstraint=eastwest;rounded=0;dashed=1;glass=0;" parent="dRl3eRQ6_bMQMa4h4iAi-42" vertex="1">
                    <mxGeometry y="78" width="156" height="26" as="geometry"/>
                </mxCell>
                <mxCell id="dRl3eRQ6_bMQMa4h4iAi-46" value="+ NetworkStatus" style="text;strokeColor=#000000;fillColor=none;align=left;verticalAlign=top;spacingLeft=4;spacingRight=4;overflow=hidden;rotatable=0;points=[[0,0.5],[1,0.5]];portConstraint=eastwest;rounded=0;dashed=1;glass=0;" parent="dRl3eRQ6_bMQMa4h4iAi-42" vertex="1">
                    <mxGeometry y="104" width="156" height="26" as="geometry"/>
                </mxCell>
                <mxCell id="19" value="PeerCondition" style="swimlane;fontStyle=0;childLayout=stackLayout;horizontal=1;startSize=26;fillColor=none;horizontalStack=0;resizeParent=1;resizeParentMax=0;resizeLast=0;collapsible=1;marginBottom=0;rounded=0;shadow=0;comic=0;swimlaneLine=1;glass=0;swimlaneFillColor=none;" vertex="1" parent="1">
                    <mxGeometry x="-1359" y="368" width="147" height="182" as="geometry">
                        <mxRectangle x="110" y="120" width="90" height="26" as="alternateBounds"/>
                    </mxGeometry>
                </mxCell>
                <mxCell id="20" value="+ NamespacedName" style="text;strokeColor=#82b366;fillColor=#d5e8d4;align=left;verticalAlign=top;spacingLeft=4;spacingRight=4;overflow=hidden;rotatable=0;points=[[0,0.5],[1,0.5]];portConstraint=eastwest;dashed=1;rounded=0;glass=0;" vertex="1" parent="19">
                    <mxGeometry y="26" width="147" height="26" as="geometry"/>
                </mxCell>
                <mxCell id="22" value="+ Type" style="text;strokeColor=#000000;fillColor=none;align=left;verticalAlign=top;spacingLeft=4;spacingRight=4;overflow=hidden;rotatable=0;points=[[0,0.5],[1,0.5]];portConstraint=eastwest;dashed=1;rounded=0;glass=0;" vertex="1" parent="19">
                    <mxGeometry y="52" width="147" height="26" as="geometry"/>
                </mxCell>
                <mxCell id="23" value="+ Status" style="text;strokeColor=#000000;fillColor=none;align=left;verticalAlign=top;spacingLeft=4;spacingRight=4;overflow=hidden;rotatable=0;points=[[0,0.5],[1,0.5]];portConstraint=eastwest;dashed=1;rounded=0;glass=0;" vertex="1" parent="19">
                    <mxGeometry y="78" width="147" height="26" as="geometry"/>
                </mxCell>
                <mxCell id="24" value="+ LatestTransitionTime" style="text;strokeColor=#000000;fillColor=none;align=left;verticalAlign=top;spacingLeft=4;spacingRight=4;overflow=hidden;rotatable=0;points=[[0,0.5],[1,0.5]];portConstraint=eastwest;dashed=1;rounded=0;glass=0;" vertex="1" parent="19">
                    <mxGeometry y="104" width="147" height="26" as="geometry"/>
                </mxCell>
                <mxCell id="25" value="+ Reason" style="text;strokeColor=#000000;fillColor=none;align=left;verticalAlign=top;spacingLeft=4;spacingRight=4;overflow=hidden;rotatable=0;points=[[0,0.5],[1,0.5]];portConstraint=eastwest;dashed=1;rounded=0;glass=0;" vertex="1" parent="19">
                    <mxGeometry y="130" width="147" height="26" as="geometry"/>
                </mxCell>
                <mxCell id="26" value="+ Message" style="text;strokeColor=#000000;fillColor=none;align=left;verticalAlign=top;spacingLeft=4;spacingRight=4;overflow=hidden;rotatable=0;points=[[0,0.5],[1,0.5]];portConstraint=eastwest;dashed=1;rounded=0;glass=0;" vertex="1" parent="19">
                    <mxGeometry y="156" width="147" height="26" as="geometry"/>
                </mxCell>
                <mxCell id="27" value="NamespacedName" style="swimlane;fontStyle=0;childLayout=stackLayout;horizontal=1;startSize=26;fillColor=none;horizontalStack=0;resizeParent=1;resizeParentMax=0;resizeLast=0;collapsible=1;marginBottom=0;rounded=0;shadow=0;comic=0;swimlaneLine=1;glass=0;swimlaneFillColor=none;" vertex="1" parent="1">
                    <mxGeometry x="-1139" y="464" width="154" height="78" as="geometry">
                        <mxRectangle x="110" y="120" width="90" height="26" as="alternateBounds"/>
                    </mxGeometry>
                </mxCell>
                <mxCell id="28" value="+ Name" style="text;strokeColor=#000000;fillColor=none;align=left;verticalAlign=top;spacingLeft=4;spacingRight=4;overflow=hidden;rotatable=0;points=[[0,0.5],[1,0.5]];portConstraint=eastwest;dashed=1;rounded=0;glass=0;" vertex="1" parent="27">
                    <mxGeometry y="26" width="154" height="26" as="geometry"/>
                </mxCell>
                <mxCell id="29" value="+ Namespace" style="text;strokeColor=#000000;fillColor=none;align=left;verticalAlign=top;spacingLeft=4;spacingRight=4;overflow=hidden;rotatable=0;points=[[0,0.5],[1,0.5]];portConstraint=eastwest;dashed=1;rounded=0;glass=0;" vertex="1" parent="27">
                    <mxGeometry y="52" width="154" height="26" as="geometry"/>
                </mxCell>
                <mxCell id="30" value="" style="endArrow=classic;html=1;exitX=-0.006;exitY=0.731;exitDx=0;exitDy=0;exitPerimeter=0;entryX=0.993;entryY=0.103;entryDx=0;entryDy=0;entryPerimeter=0;edgeStyle=orthogonalEdgeStyle;rounded=0;" edge="1" parent="1" source="KDWJucEkSN8olWHDvFnU-105" target="KDWJucEkSN8olWHDvFnU-136">
                    <mxGeometry width="50" height="50" relative="1" as="geometry">
                        <mxPoint x="-1271" y="573" as="sourcePoint"/>
                        <mxPoint x="-1221" y="523" as="targetPoint"/>
                    </mxGeometry>
                </mxCell>
                <mxCell id="31" value="" style="endArrow=classic;html=1;rounded=0;exitX=-0.007;exitY=0.423;exitDx=0;exitDy=0;exitPerimeter=0;edgeStyle=orthogonalEdgeStyle;entryX=0.007;entryY=0.077;entryDx=0;entryDy=0;entryPerimeter=0;" edge="1" parent="1" source="dRl3eRQ6_bMQMa4h4iAi-32" target="19">
                    <mxGeometry width="50" height="50" relative="1" as="geometry">
                        <mxPoint x="-1448" y="348" as="sourcePoint"/>
                        <mxPoint x="-1405" y="367" as="targetPoint"/>
                        <Array as="points">
                            <mxPoint x="-1383" y="323"/>
                            <mxPoint x="-1383" y="382"/>
                        </Array>
                    </mxGeometry>
                </mxCell>
                <mxCell id="32" value="" style="endArrow=classic;html=1;rounded=0;edgeStyle=orthogonalEdgeStyle;" edge="1" parent="1" target="27">
                    <mxGeometry width="50" height="50" relative="1" as="geometry">
                        <mxPoint x="-990" y="387" as="sourcePoint"/>
                        <mxPoint x="-1187" y="481" as="targetPoint"/>
                        <Array as="points">
                            <mxPoint x="-958" y="387"/>
                            <mxPoint x="-958" y="476"/>
                        </Array>
                    </mxGeometry>
                </mxCell>
                <mxCell id="33" value="" style="endArrow=classic;html=1;rounded=0;exitX=1.014;exitY=0.654;exitDx=0;exitDy=0;exitPerimeter=0;edgeStyle=orthogonalEdgeStyle;entryX=0.006;entryY=0.231;entryDx=0;entryDy=0;entryPerimeter=0;" edge="1" parent="1" source="20" target="27">
                    <mxGeometry width="50" height="50" relative="1" as="geometry">
                        <mxPoint x="-1260" y="625" as="sourcePoint"/>
                        <mxPoint x="-1210" y="575" as="targetPoint"/>
                    </mxGeometry>
                </mxCell>
                <mxCell id="34" value="" style="endArrow=classic;html=1;rounded=0;exitX=0.993;exitY=0.5;exitDx=0;exitDy=0;exitPerimeter=0;edgeStyle=orthogonalEdgeStyle;entryX=0.006;entryY=0.1;entryDx=0;entryDy=0;entryPerimeter=0;" edge="1" parent="1" source="vzT8f4KXaF0AbJHfFzT5-18" target="dRl3eRQ6_bMQMa4h4iAi-36">
                    <mxGeometry width="50" height="50" relative="1" as="geometry">
                        <mxPoint x="-698" y="569" as="sourcePoint"/>
                        <mxPoint x="-648" y="519" as="targetPoint"/>
                    </mxGeometry>
                </mxCell>
                <mxCell id="35" value="" style="endArrow=classic;html=1;rounded=0;entryX=0.013;entryY=0.131;entryDx=0;entryDy=0;entryPerimeter=0;" edge="1" parent="1" target="dRl3eRQ6_bMQMa4h4iAi-42">
                    <mxGeometry width="50" height="50" relative="1" as="geometry">
                        <mxPoint x="-990" y="364" as="sourcePoint"/>
                        <mxPoint x="-643" y="540" as="targetPoint"/>
                    </mxGeometry>
                </mxCell>
            </root>
        </mxGraphModel>
    </diagram>
    <diagram id="N9aLmfWTt22or_KGCtbo" name="第 2 页">
        <mxGraphModel dx="2276" dy="1910" grid="1" gridSize="10" guides="1" tooltips="1" connect="1" arrows="1" fold="1" page="1" pageScale="1" pageWidth="827" pageHeight="1169" math="0" shadow="0">
            <root>
                <mxCell id="0"/>
                <mxCell id="1" parent="0"/>
                <mxCell id="LcTMq7NTWMzrsomWqzMF-1" value="OrganizationSpec" style="swimlane;fontStyle=0;childLayout=stackLayout;horizontal=1;startSize=26;fillColor=none;horizontalStack=0;resizeParent=1;resizeParentMax=0;resizeLast=0;collapsible=1;marginBottom=0;rounded=0;shadow=0;comic=0;" vertex="1" parent="1">
                    <mxGeometry x="-530" y="-37" width="133" height="104" as="geometry"/>
                </mxCell>
                <mxCell id="LcTMq7NTWMzrsomWqzMF-2" value="+ DisplayName" style="text;strokeColor=#000000;fillColor=none;align=left;verticalAlign=top;spacingLeft=4;spacingRight=4;overflow=hidden;rotatable=0;points=[[0,0.5],[1,0.5]];portConstraint=eastwest;dashed=1;rounded=0;gradientColor=none;" vertex="1" parent="LcTMq7NTWMzrsomWqzMF-1">
                    <mxGeometry y="26" width="133" height="26" as="geometry"/>
                </mxCell>
                <mxCell id="LcTMq7NTWMzrsomWqzMF-3" value="+ Admin" style="text;strokeColor=#000000;fillColor=none;align=left;verticalAlign=top;spacingLeft=4;spacingRight=4;overflow=hidden;rotatable=0;points=[[0,0.5],[1,0.5]];portConstraint=eastwest;dashed=1;rounded=0;gradientColor=none;" vertex="1" parent="LcTMq7NTWMzrsomWqzMF-1">
                    <mxGeometry y="52" width="133" height="26" as="geometry"/>
                </mxCell>
                <mxCell id="LcTMq7NTWMzrsomWqzMF-4" value="+ CARef" style="text;strokeColor=#82b366;fillColor=#d5e8d4;align=left;verticalAlign=top;spacingLeft=4;spacingRight=4;overflow=hidden;rotatable=0;points=[[0,0.5,0,0,0],[1,0.5,0,0,0]];portConstraint=eastwest;dashed=1;rounded=0;" vertex="1" parent="LcTMq7NTWMzrsomWqzMF-1">
                    <mxGeometry y="78" width="133" height="26" as="geometry"/>
                </mxCell>
                <mxCell id="LcTMq7NTWMzrsomWqzMF-5" value="Organization " style="swimlane;fontStyle=0;childLayout=stackLayout;horizontal=1;startSize=26;fillColor=#f8cecc;horizontalStack=0;resizeParent=1;resizeParentMax=0;resizeLast=0;collapsible=1;marginBottom=0;rounded=0;shadow=0;comic=0;swimlaneLine=1;glass=0;swimlaneFillColor=none;strokeColor=#b85450;" vertex="1" parent="1">
                    <mxGeometry x="-720" y="-130" width="130" height="130" as="geometry">
                        <mxRectangle x="110" y="120" width="90" height="26" as="alternateBounds"/>
                    </mxGeometry>
                </mxCell>
                <mxCell id="LcTMq7NTWMzrsomWqzMF-6" value="+ TypeMeta" style="text;strokeColor=#000000;fillColor=none;align=left;verticalAlign=top;spacingLeft=4;spacingRight=4;overflow=hidden;rotatable=0;points=[[0,0.5],[1,0.5]];portConstraint=eastwest;dashed=1;rounded=0;glass=0;" vertex="1" parent="LcTMq7NTWMzrsomWqzMF-5">
                    <mxGeometry y="26" width="130" height="26" as="geometry"/>
                </mxCell>
                <mxCell id="LcTMq7NTWMzrsomWqzMF-7" value="+ ObjectMeta" style="text;strokeColor=#000000;fillColor=none;align=left;verticalAlign=top;spacingLeft=4;spacingRight=4;overflow=hidden;rotatable=0;points=[[0,0.5],[1,0.5]];portConstraint=eastwest;dashed=1;rounded=0;glass=0;" vertex="1" parent="LcTMq7NTWMzrsomWqzMF-5">
                    <mxGeometry y="52" width="130" height="26" as="geometry"/>
                </mxCell>
                <mxCell id="LcTMq7NTWMzrsomWqzMF-8" value="+ OrganizationSpec" style="text;strokeColor=#000000;fillColor=none;align=left;verticalAlign=top;spacingLeft=4;spacingRight=4;overflow=hidden;rotatable=0;points=[[0,0.5],[1,0.5]];portConstraint=eastwest;rounded=0;dashed=1;glass=0;" vertex="1" parent="LcTMq7NTWMzrsomWqzMF-5">
                    <mxGeometry y="78" width="130" height="26" as="geometry"/>
                </mxCell>
                <mxCell id="LcTMq7NTWMzrsomWqzMF-9" value="+ OrganizationStatus" style="text;strokeColor=#000000;fillColor=none;align=left;verticalAlign=top;spacingLeft=4;spacingRight=4;overflow=hidden;rotatable=0;points=[[0,0.5],[1,0.5]];portConstraint=eastwest;rounded=0;dashed=1;glass=0;" vertex="1" parent="LcTMq7NTWMzrsomWqzMF-5">
                    <mxGeometry y="104" width="130" height="26" as="geometry"/>
                </mxCell>
                <mxCell id="LcTMq7NTWMzrsomWqzMF-10" value="CA" style="swimlane;fontStyle=0;childLayout=stackLayout;horizontal=1;startSize=26;fillColor=#f8cecc;horizontalStack=0;resizeParent=1;resizeParentMax=0;resizeLast=0;collapsible=1;marginBottom=0;rounded=0;shadow=0;comic=0;swimlaneLine=1;glass=0;swimlaneFillColor=none;strokeColor=#b85450;" vertex="1" parent="1">
                    <mxGeometry x="-350" y="-50" width="130" height="130" as="geometry">
                        <mxRectangle x="110" y="120" width="90" height="26" as="alternateBounds"/>
                    </mxGeometry>
                </mxCell>
                <mxCell id="LcTMq7NTWMzrsomWqzMF-11" value="+ TypeMeta" style="text;strokeColor=#000000;fillColor=none;align=left;verticalAlign=top;spacingLeft=4;spacingRight=4;overflow=hidden;rotatable=0;points=[[0,0.5],[1,0.5]];portConstraint=eastwest;dashed=1;rounded=0;glass=0;" vertex="1" parent="LcTMq7NTWMzrsomWqzMF-10">
                    <mxGeometry y="26" width="130" height="26" as="geometry"/>
                </mxCell>
                <mxCell id="LcTMq7NTWMzrsomWqzMF-12" value="+ ObjectMeta" style="text;strokeColor=#000000;fillColor=none;align=left;verticalAlign=top;spacingLeft=4;spacingRight=4;overflow=hidden;rotatable=0;points=[[0,0.5],[1,0.5]];portConstraint=eastwest;dashed=1;rounded=0;glass=0;" vertex="1" parent="LcTMq7NTWMzrsomWqzMF-10">
                    <mxGeometry y="52" width="130" height="26" as="geometry"/>
                </mxCell>
                <mxCell id="LcTMq7NTWMzrsomWqzMF-13" value="+ CASpec" style="text;strokeColor=#000000;fillColor=none;align=left;verticalAlign=top;spacingLeft=4;spacingRight=4;overflow=hidden;rotatable=0;points=[[0,0.5],[1,0.5]];portConstraint=eastwest;rounded=0;dashed=1;glass=0;" vertex="1" parent="LcTMq7NTWMzrsomWqzMF-10">
                    <mxGeometry y="78" width="130" height="26" as="geometry"/>
                </mxCell>
                <mxCell id="LcTMq7NTWMzrsomWqzMF-14" value="+ CAStatus" style="text;strokeColor=#000000;fillColor=none;align=left;verticalAlign=top;spacingLeft=4;spacingRight=4;overflow=hidden;rotatable=0;points=[[0,0.5],[1,0.5]];portConstraint=eastwest;rounded=0;dashed=1;glass=0;" vertex="1" parent="LcTMq7NTWMzrsomWqzMF-10">
                    <mxGeometry y="104" width="130" height="26" as="geometry"/>
                </mxCell>
                <mxCell id="LcTMq7NTWMzrsomWqzMF-15" style="edgeStyle=orthogonalEdgeStyle;rounded=0;orthogonalLoop=1;jettySize=auto;html=1;entryX=-0.006;entryY=0.1;entryDx=0;entryDy=0;entryPerimeter=0;" edge="1" parent="1" source="LcTMq7NTWMzrsomWqzMF-4" target="LcTMq7NTWMzrsomWqzMF-10">
                    <mxGeometry relative="1" as="geometry"/>
                </mxCell>
                <mxCell id="LcTMq7NTWMzrsomWqzMF-17" style="edgeStyle=orthogonalEdgeStyle;rounded=0;orthogonalLoop=1;jettySize=auto;html=1;entryX=0.001;entryY=0.134;entryDx=0;entryDy=0;entryPerimeter=0;" edge="1" parent="1" source="LcTMq7NTWMzrsomWqzMF-8" target="LcTMq7NTWMzrsomWqzMF-1">
                    <mxGeometry relative="1" as="geometry"/>
                </mxCell>
            </root>
        </mxGraphModel>
    </diagram>
</mxfile>